# xmcd
#
# Track frame offsets:
# 150
# 15701
# 30429
# 48433
# 64728
# 80639
# 98733
# 114613
# 130048
# 142399
# 157413
# 213826
#
# Disc length: 3084 seconds
#
# Revision: 1
# Processed by: cddbd v1.5.1PL0 Copyright (c) Steve Scherf et al.
# Submitted via: CedeCatalogueitor 2.6.0.6 http://personales.ya.com/cdcatalogueitor
#
DISCID=a90c0a0c
DTITLE=Los Galván - Compartiendo
DYEAR=2004
DGENRE=
TTITLE0=Te Doy Las Gracias
TTITLE1=Desde Alguna Parte
TTITLE2=Ese Gran Desconocido
TTITLE3=Los Labios Del Pecado
TTITLE4=Decia Mi Alma
TTITLE5=Por Eso Canto
TTITLE6=Dime
TTITLE7=Un Mundo Nuevo
TTITLE8=Que Valiente
TTITLE9=Decir Adiós
TTITLE10=Por Qué Duele Querer
TTITLE11=Por Eso Canto (con Melendi)
EXTD=
EXTT0=
EXTT1=
EXTT2=
EXTT3=
EXTT4=
EXTT5=
EXTT6=
EXTT7=
EXTT8=
EXTT9=
EXTT10=
EXTT11=
PLAYORDER=
